<?xml version="1.0" standalone="no"?>
<!DOCTYPE svg PUBLIC "-//W3C//DTD SVG 20010904//EN"
 "http://www.w3.org/TR/2001/REC-SVG-20010904/DTD/svg10.dtd">
<svg version="1.0" xmlns="http://www.w3.org/2000/svg"
 width="100.000000pt" height="100.000000pt" viewBox="0 0 100.000000 100.000000"
 preserveAspectRatio="xMidYMid meet">

<g transform="translate(0.000000,100.000000) scale(0.100000,-0.100000)"
fill="#000000" stroke="none">
<path d="M471 812 c-19 -73 -38 -127 -42 -121 -5 9 -15 9 -40 0 -44 -15 -69
-39 -69 -67 0 -24 42 -64 68 -64 13 0 13 3 -1 18 -10 10 -17 25 -17 34 0 17
47 64 56 56 3 -4 -8 -60 -26 -125 -36 -136 -42 -163 -34 -146 4 9 24 10 67 6
114 -10 238 33 245 86 4 28 -22 58 -67 77 -49 20 -61 17 -23 -6 28 -17 33 -25
30 -53 -3 -27 -10 -36 -51 -56 -58 -29 -187 -43 -186 -20 0 8 19 68 42 134 35
100 46 121 64 123 19 3 22 -3 28 -45 3 -26 8 -55 10 -63 4 -18 -5 184 -14 290
l-6 75 -34 -133z m29 -72 c0 -20 -5 -30 -14 -30 -12 0 -13 6 -5 30 6 17 13 30
15 30 2 0 4 -13 4 -30z"/>
<path d="M555 700 c17 -4 41 -8 55 -8 l25 0 -25 8 c-14 4 -38 8 -55 8 l-30 0
30 -8z"/>
<path d="M328 423 c6 -2 18 -2 25 0 6 3 1 5 -13 5 -14 0 -19 -2 -12 -5z"/>
<path d="M20 215 c0 -14 7 -28 15 -31 21 -8 19 -32 -2 -37 -14 -4 -12 -5 5 -6
17 -1 22 4 22 24 0 14 -7 28 -15 31 -21 8 -19 32 3 37 13 4 11 5 -5 6 -18 1
-23 -4 -23 -24z"/>
<path d="M70 230 c0 -5 5 -10 10 -10 6 0 11 -19 12 -42 l1 -43 4 39 c3 22 12
46 21 53 15 11 13 12 -15 13 -18 0 -33 -4 -33 -10z"/>
<path d="M156 229 c-3 -8 -9 -32 -15 -54 -9 -34 -8 -37 3 -22 16 21 36 22 36
2 0 -8 4 -15 10 -15 5 0 3 20 -5 46 -16 53 -23 63 -29 43z m14 -29 c0 -11 -4
-20 -9 -20 -5 0 -7 9 -4 20 3 11 7 20 9 20 2 0 4 -9 4 -20z"/>
<path d="M211 188 c1 -29 4 -42 6 -29 l5 25 17 -23 c17 -22 17 -21 16 26 0 42
-3 48 -22 51 -22 3 -23 0 -22 -50z m37 20 c-6 -18 -28 -21 -28 -4 0 9 7 16 16
16 9 0 14 -5 12 -12z"/>
<path d="M311 196 c-14 -59 -14 -64 4 -40 15 19 15 19 30 0 18 -24 18 -19 4
40 -6 24 -15 44 -19 44 -4 0 -13 -20 -19 -44z m29 -7 c0 -5 -4 -9 -10 -9 -5 0
-10 7 -10 16 0 8 5 12 10 9 6 -3 10 -10 10 -16z"/>
<path d="M372 205 c-2 -48 9 -68 34 -63 15 2 19 13 20 53 l2 50 -7 -44 c-10
-74 -31 -65 -44 19 -3 15 -5 10 -5 -15z"/>
<path d="M440 230 c0 -5 5 -10 10 -10 6 0 11 -19 12 -42 l1 -43 4 39 c3 22 12
46 21 53 15 11 13 12 -15 13 -18 0 -33 -4 -33 -10z"/>
<path d="M514 226 c-3 -8 -4 -29 -2 -48 2 -25 8 -34 25 -36 16 -2 23 3 28 27
3 16 1 39 -5 50 -12 24 -38 28 -46 7z m41 -16 c8 -26 -3 -62 -18 -57 -7 2 -13
14 -15 26 -7 45 20 71 33 31z"/>
<path d="M590 188 c0 -62 5 -60 14 5 5 31 4 47 -3 47 -7 0 -11 -22 -11 -52z"/>
<path d="M637 233 c-4 -3 -7 -15 -7 -25 0 -11 -4 -16 -10 -13 -5 3 -10 -1 -10
-9 0 -24 18 -19 27 7 6 19 8 17 14 -18 6 -40 6 -39 8 13 1 48 -6 62 -22 45z"/>
<path d="M686 204 c-4 -19 -10 -43 -13 -52 -4 -13 -2 -12 11 3 16 20 16 20 31
1 18 -24 20 -8 4 47 -13 47 -25 47 -33 1z m20 -21 c-10 -10 -19 5 -10 18 6 11
8 11 12 0 2 -7 1 -15 -2 -18z"/>
<path d="M740 230 c0 -5 4 -10 9 -10 6 0 12 -19 14 -42 l4 -43 1 43 c1 23 7
42 12 42 6 0 10 5 10 10 0 6 -11 10 -25 10 -14 0 -25 -4 -25 -10z"/>
<path d="M813 190 c0 -30 2 -43 4 -27 2 15 2 39 0 55 -2 15 -4 2 -4 -28z"/>
<path d="M844 226 c-3 -8 -4 -29 -2 -48 2 -25 8 -34 25 -36 16 -2 23 3 28 27
3 16 1 39 -5 50 -12 24 -38 28 -46 7z m41 -16 c8 -26 -3 -62 -18 -57 -7 2 -13
14 -15 26 -7 45 20 71 33 31z"/>
<path d="M917 234 c-11 -11 -8 -82 3 -89 6 -4 10 8 11 27 l1 33 10 -32 c16
-48 28 -40 27 15 -1 42 -2 44 -9 17 -4 -16 -8 -23 -9 -14 -1 21 -25 52 -34 43z"/>
<path d="M443 95 c0 -8 4 -12 9 -9 5 3 6 10 3 15 -9 13 -12 11 -12 -6z"/>
<path d="M730 95 c0 -8 2 -15 4 -15 2 0 6 7 10 15 3 8 1 15 -4 15 -6 0 -10 -7
-10 -15z"/>
</g>
</svg>
